<svg width="100%" height="100%" viewBox="0 0 1800 2360"
     xmlns="http://www.w3.org/2000/svg"
     xmlns:xlink="http://www.w3.org/1999/xlink">
  <defs>
<path d="m721,1552c0,-1 0,-2 0,-7c0,-3 0,-6 0,-9c0,-3 0.49347,-6.87854 1,-10c0.8009,-4.93542 2,-8 2,-11c0,-4 0,-7 0,-12c0,-4 1,-7 1,-10c0,-5 0,-9 0,-14c0,-4 2,-9 2,-13c0,-6 0,-11 0,-17c0,-6 0,-12 0,-16c0,-6 0,-12 0,-17c0,-4 0,-10 0,-16c0,-6 0,-11 0,-17c0,-4 0,-10 0,-15c0,-4 0,-10 0,-15c0,-4 0,-10 0,-15c0,-4 0,-9 0,-15c0,-4 -0.49347,-9.87854 -1,-13c-0.96112,-5.92255 -1.60583,-11.01947 -2,-15c-0.50244,-5.07422 -0.24359,-9.0722 -1,-13c-1.01837,-5.28802 -2.49756,-9.92578 -3,-15c-0.39417,-3.98053 -0.95514,-7.54913 -2,-11c-1.44891,-4.78546 0,-9 0,-12c0,-5 0,-9 0,-14c0,-3 0,-7 0,-12c0,-3 0,-7 0,-12c0,-4 0,-9 0,-13c0,-5 0,-9 0,-14c0,-4 0,-9 0,-13c0,-3 0,-8 0,-11c0,-4 -0.24359,-8.0722 -1,-12c-1.01837,-5.28802 -2.49756,-6.92578 -3,-12c-0.29559,-2.98541 -2,-8 -2,-12c0,-6 -0.33197,-9.22937 -2,-13c-1.45862,-3.2973 -3.60645,-6.5387 -5,-9c-2.03143,-3.58795 -3.54138,-6.7027 -5,-10c-1.66803,-3.77063 -2.724,-6.22272 -6,-10c-0.92657,-1.06836 -4.34619,-4.70544 -6,-7c-2.61493,-3.62799 -3.38507,-6.37201 -6,-10c-1.65381,-2.29456 -4.37134,-3.74677 -7,-8c-2.35114,-3.8042 -4.22272,-6.724 -8,-10c-3.20514,-2.77979 -4,-5 -6,-7c-1,-1 -2.69257,-4.18604 -4,-6c-1.65381,-2.29456 -4,-4 -5,-5c-1,-1 -3,-4 -4,-5c-1,-1 -2.85272,-3.1731 -4,-4c-1.81396,-1.30743 -4,-3 -6,-5c-1,-1 -2.70544,-1.34619 -5,-3c-1.81396,-1.30743 -5.18604,-2.69257 -7,-4c-2.29456,-1.65381 -3.54913,-3.95514 -7,-5c-1.91418,-0.57959 -3.31,-0.33746 -6,-2c-1.203,-0.74347 -3,-2 -5,-2c-1,0 -5.05353,-1.54047 -7,-2c-2.17627,-0.51373 -4.54913,-1.95514 -8,-3c-0.95709,-0.28979 -4.08026,0.68927 -7,0c-2.17627,-0.51373 -7,-1 -11,-1c-1,0 -3,0 -6,0c-1,0 -4,0 -7,0c-3,0 -6,0 -9,0c-3,0 -5,0 -8,0c-1,0 -4,0 -7,0c-2,0 -3.02582,-0.32037 -5,0c-3.12146,0.50653 -3.87854,1.49347 -7,2c-1.97418,0.32037 -2.85272,1.1731 -4,2c-1.81396,1.30743 -3,2 -4,3c-1,1 -3,3 -4,4c-2,2 -3.15225,2.23462 -5,3c-1.30655,0.5412 -2.07611,2.61731 -3,3c-1.30655,0.5412 -3,2 -4,3c-1,1 -3,3 -4,4c-2,2 -3,3 -5,5c-1,1 -2,3 -4,5c-2,2 -3,3 -5,5c-1,1 -3,3 -4,4c-3,3 -5,5 -6,6c-2,2 -2.33749,3.31 -4,6c-0.7435,1.203 -3,3 -4,4c-1,1 -3,4 -4,5c-2,2 -3,3 -6,6c-2,2 -3,3 -5,5c-2,2 -4.01291,3.83984 -5,4c-3.12143,0.50653 -5.01291,2.83984 -6,3c-3.12143,0.50653 -6.186,0.69257 -8,2c-2.29453,1.65381 -5.82376,4.48627 -8,5c-2.91974,0.68927 -7.133,1.56952 -11,3c-4.19434,1.55157 -8.71201,3.98163 -14,5c-1.9639,0.37823 -9.00974,2.80292 -11,3c-5.07422,0.50244 -8.93097,2.23773 -12,3c-5.90338,1.46625 -11.04132,2.84723 -15,4c-6.07233,1.76825 -11.75711,3.98694 -18,5c-4.93542,0.8009 -9,1 -14,1c-4,0 -10,2 -13,2c-5,0 -8.90778,0.49622 -13,1c-3.97003,0.48871 -7,0 -11,0c-3,0 -8,0 -11,0c-4,0 -7,0 -10,-1c-3,-1 -5.08026,-0.31073 -8,-1c-2.17624,-0.51373 -5.05664,-2.91754 -8,-5c-4.0817,-2.88788 -6.74675,-4.37134 -11,-7c-3.80423,-2.35114 -7.71899,-3.31024 -11,-6c-2.78833,-2.28589 -5.74675,-3.37134 -10,-6c-3.80423,-2.35114 -5.88152,-3.19031 -9,-5c-1.93399,-1.12231 -4.74675,-4.37134 -9,-7c-3.80423,-2.35114 -5.5582,-3.51929 -9,-6c-3.62799,-2.61493 -6.21167,-3.71411 -9,-6c-3.28101,-2.68976 -6.07341,-3.93164 -7,-5c-3.27602,-3.77728 -3.62489,-5.6297 -6,-9c-2.07697,-2.9472 -5.2068,-4.81268 -7,-7c-2.28587,-2.78833 -5.44298,-6.63873 -7,-9c-2.96448,-4.49573 -3.91753,-7.05664 -6,-10c-2.88786,-4.08173 -4.513,-6.59399 -6,-9c-1.66251,-2.69 -2.41589,-6.76111 -4,-10c-1.38936,-2.8407 -1.84087,-7.17163 -3,-11c-1.04483,-3.45087 -3.95517,-5.54913 -5,-9c-0.86935,-2.87128 -1,-6 -1,-9c0,-3 -2,-5 -2,-6c0,-3 0,-7 0,-10c0,-3 0,-6 0,-8c0,-1 1.34619,-2.70544 3,-5c1.30745,-1.81396 2.3851,-4.37201 5,-8c0.8269,-1.14728 3,-3 4,-4c2,-2 3.15224,-2.23462 5,-3c2.61313,-1.0824 3.70546,-3.34619 6,-5c1.814,-1.30743 4.93414,-3.14429 7,-4c2.92157,-1.21014 5.186,-2.69254 7,-4c2.29454,-1.65381 5.93414,-3.14429 8,-4c2.92157,-1.21014 6.64749,-2.9725 11,-4c3.89299,-0.91901 7.02997,-1.51126 11,-2c4.09221,-0.50378 8.01498,-2.75565 10,-3c4.09221,-0.50378 6.71201,-1.98163 12,-3c2.94586,-0.56732 7.01791,-0.67264 10,-1c9.16449,-1.00601 16.94672,-2.49875 24,-3c2.99246,-0.21268 5.54916,-0.95517 9,-2c2.87128,-0.86935 8,0 11,0c3,0 6,0 9,0c4,0 9,0 13,0c5,0 9,0 12,0c3,0 8,0 11,0c3,0 7.10059,-0.61221 15,1c7.13306,1.45581 10,2 15,2c3,0 6,1 9,1c3,0 6,2 8,2c2,0 5,1 8,1c5,0 8,2 12,2c3,0 6.06458,0.1991 11,1c6.24289,1.01309 10.00766,1.72351 15,2c9.04153,0.50076 12,1 15,1c4,0 7.82376,1.48627 10,2c4.86624,1.14877 8,1 11,1c3,0 6,0 9,0c4,0 7,0 9,0c3,0 4,0 7,0c2,0 5,0 8,0c3,0 4,0 7,0c3,0 6,0 9,0c3,0 8,0 11,0c3,0 8.01501,1.75565 10,2c4.09222,0.50378 8,1 11,1c2,0 4,0 9,0c3,0 6,0 9,0c3,0 6,0 10,0c3,0 6,0 11,0c4,0 6.47125,-2.45877 13,-4c1.94647,-0.4595 4.08582,-0.42044 6,-1c3.45087,-1.04483 6.31,-1.33749 9,-3c2.40601,-1.487 5.05353,-1.5405 7,-2c2.17627,-0.51373 6,-3 8,-3c3,0 5.3869,-1.9176 8,-3c0.92389,-0.38269 3.02673,-0.77023 4,-1c4.35248,-1.0275 6,-3 8,-5c1,-1 2,-2 2,-3c0,-2 1,-4 2,-5c1,-1 0.61731,-3.07611 1,-4c0.5412,-1.30655 2,-3 2,-5c0,-1 1,-4 1,-6c0,-1 0,-4 0,-6c0,-3 0,-7 0,-12c0,-4 0,-7 0,-9c0,-1 0,-4 0,-6c0,-1 0,-4 0,-6c0,-3 0,-6 0,-9c0,-1 0,-6 0,-9c0,-3 0.43048,-6.133 -1,-10c-2.32739,-6.29153 -5.98694,-11.75711 -7,-18c-0.32037,-1.97418 -1.61066,-5.15927 -3,-8c-1.58411,-3.23892 -3.34619,-5.70547 -5,-8c-1.30743,-1.814 -2,-5 -4,-8c-2,-3 -2.69257,-5.186 -4,-7c-1.65381,-2.29453 -4,-4 -5,-5c-2,-2 -4.33746,-5.31 -6,-8c-1.487,-2.40601 -4.50427,-3.03552 -9,-6c-1.18066,-0.7785 -1.87854,-1.49347 -5,-2c-1.97418,-0.32037 -6,-3 -12,-3c-5,0 -8,0 -12,0c-5,0 -9,0 -15,0c-5,0 -10,0 -17,1c-7,1 -12.65491,3.82294 -19,6c-4.823,1.65482 -5.94342,1.14774 -11,3c-2.96933,1.08768 -7.07843,2.78986 -10,4c-4.13171,1.71143 -5.76993,3.54861 -10,5c-4.82303,1.65482 -10.90759,4.41479 -19,6c-6.93918,1.35928 -13.95468,4.19089 -22,6c-4.97479,1.11865 -14.01828,3.93381 -25,7c-7.01193,1.95779 -12.94342,3.14774 -18,5c-5.93866,2.17538 -11.02045,2.50513 -17,3c-6.06204,0.50171 -16.96881,3.49957 -29,4c-3.99655,0.16623 -10,2 -13,2c-4,0 -8,0 -12,0c-8,0 -17.01947,0.39417 -21,0c-5.07422,-0.50244 -9,-1 -13,-2c-4,-1 -6.87857,-1.49347 -10,-2c-0.98709,-0.16019 -6.02676,-1.77023 -7,-2c-2.17624,-0.51373 -2.78986,-2.07843 -4,-5c-1.71143,-4.13171 -3.46552,-6.83807 -5,-12c-1.45294,-4.88763 -1.95517,-6.54916 -3,-10c-0.86935,-2.87128 -0.51944,-5.03873 -1,-8c-1.01309,-6.24289 -4.56952,-11.133 -6,-15c-1.55161,-4.19434 -4.17395,-9.16879 -6,-16c-1.39067,-5.20251 -3,-9 -3,-14c0,-3 -2,-6 -2,-10c0,-4 0,-8 0,-9c0,-5 0,-6 0,-8c0,-3 1.97252,-5.64749 3,-10c0.68925,-2.91975 1.9176,-4.38687 3,-7c0.38269,-0.92387 0.5405,-2.0535 1,-4c0.51373,-2.17625 2.4505,-4.45049 5,-7c2.5495,-2.54951 5,-4 7,-6c1,-1 1.38687,-1.9176 4,-3c0.92389,-0.38269 4.17697,0.65482 9,-1c4.23007,-1.45137 5.90778,-2.49623 10,-3c4.96252,-0.61092 9,0 15,0c6,0 11,0 15,0c2,0 6,0 9,0c8,0 15,0 24,0c6,0 12.0361,0.37822 14,0c5.28799,-1.01837 10.05414,-2.43268 13,-3c5.28799,-1.01837 13.19028,-9.88152 15,-13c3.36703,-5.80199 1.47632,-7.39462 4,-14c1.28683,-3.3681 155.3241,-6.25008 173,-1c8.19037,2.43269 20.05164,4.35927 24,5c3.12146,0.50655 20.92773,3.25085 24,4c37.37561,9.11382 42,6 47,6c24,0 27.97919,2.4998 46,3c4.99805,0.13873 24.01459,1.70439 27,2c5.07422,0.50244 11.00342,2.91753 12,3c6.06201,0.50171 9.31,2.33749 12,4c1.203,0.7435 5.22272,2.72398 9,6c3.20514,2.77979 7,4 11,8c6,6 10,10 12,12c5,5 7.4588,7.69344 8,9c1.14807,2.77164 1.11584,5.96384 2,9c1.15277,3.95868 2.97253,8.64749 4,13c0.22974,0.97324 2.49622,6.90778 3,11c0.6109,4.96252 1.49622,9.90778 2,14c0.12219,0.99249 0,6 0,7c0,5 0,8 0,12c0,2 -1.34619,4.70547 -3,7c-1.30743,1.814 -3.1297,3.88531 -4,5c-3.58844,4.59598 -4.72961,7.22885 -9,12c-3.77271,4.21509 -6.71411,7.21167 -9,10c-1.79321,2.18735 -3.08398,3.96017 -4,6c-2.20605,4.91257 -3.79395,7.08743 -6,12c-0.91602,2.03983 -3.84839,7.0451 -6,14c-0.93457,3.02103 -2,9 -2,14c0,1 0,7 0,12c0,3 2.14771,6.94342 4,12c1.08771,2.96933 4,7 8,11c2,2 6.40771,3.60706 12,6c4.59686,1.96698 8.14063,4.45514 13,6c9.38593,2.98392 11.95331,5.49902 20,6c5.9884,0.37283 9,0 13,0c3,0 8.97858,-2.05444 14,-4c7.96692,-3.08676 18.4115,-5.28937 24,-9c7.68066,-5.09976 9.7464,-8.16119 13,-13c5.5799,-8.29849 10.91034,-12.0983 13,-19c0.86932,-2.87128 3.8432,-8.72903 7,-20c1.37524,-4.91006 2,-16 2,-25c0,-4 0,-12 0,-16c0,-9 -0.87866,-14.04135 -4,-23c-3.85101,-11.05304 -4.99243,-17.81558 -6,-26c-0.6109,-4.96252 -0.96112,-10.07748 0,-16c0.50653,-3.12143 3.73328,-7.23273 9,-13c0.95367,-1.04428 3.3869,-4.9176 6,-6c1.84778,-0.76538 2.92578,-0.49756 8,-1c5.97083,-0.59122 7,0 13,0c8,0 12,0 15,0c6,0 15,0 21,0c5,0 14,0 18,0c8,0 18,0 27,0c5,0 9,0 20,0c4,0 13,0 19,0c5,0 12,0 15,0c8,0 10,0 17,0c3,0 5.177,0.34518 10,2c4.2301,1.45139 9.33752,8.31 11,11c1.48694,2.40601 6.65259,10.13916 8,13c4.01978,8.5347 5.86157,11.03867 9,22c2.87378,10.03702 9.60938,21.79749 11,27c1.82605,6.83121 0.69446,10.08264 3,18c0.88416,3.03616 5.82593,17.06485 10,28c1.92041,5.0311 2,12 2,17c0,4 1,9 1,21c0,9 1.2345,19.20169 -1,29c-2.60254,11.41171 -10.75952,25.64398 -19,40c-7.87122,13.71289 -18,22 -23,27c-5,5 -7.47742,10.45581 -24,19c-11.23572,5.81024 -23.20557,6.27289 -35,10c-13.28101,4.1969 -28,5 -45,5c-13,0 -24.02264,0.638 -33,0c-7.05328,-0.50128 -20.90826,-4.32483 -31,-7c-12.89624,-3.41864 -21.04468,-4.76135 -27,-6c-8.07343,-1.6792 -20,-2 -32,-2c-9,0 -18.24506,-2.41278 -30,0c-7.46027,1.53125 -15.6936,5.73041 -22,10c-5.85535,3.96423 -6.23541,5.73578 -13,12c-5.18817,4.80444 -8.04633,8.95569 -9,10c-5.26672,5.76727 -6.6817,13.34326 -9,21c-1.04486,3.45087 -2,9 -2,11c0,5 0,8 0,13c0,6 -0.27039,10.22888 4,15c2.82953,3.16132 5,5 8,8c1,1 8,8 14,11c8,4 11.68774,6.53839 20,11c10.64636,5.71442 18.64752,8.97253 23,10c2.91974,0.68927 6,1 9,2c6,2 14.59308,5.47552 23,7c2.95184,0.53528 7.01721,0.93347 11,2c7.03235,1.88312 13.90759,2.41479 22,4c6.93921,1.35931 15.02045,2.50513 21,3c6.06201,0.50171 15.96869,3.11719 27,6c3.98914,1.04248 9.03876,2.51947 12,3c9.36432,1.51959 15.93799,3.49829 22,4c5.97961,0.49487 15,0 19,0c8,0 13,0 23,0c8,0 8.92578,-0.49756 14,-1c0.99512,-0.09851 5.85718,-1.59308 13,-3c8.88464,-1.75 20.96875,-3.49957 33,-4c2.99744,-0.12469 10.01501,-2.75562 12,-3c8.18445,-1.00757 14,-2 17,-2c4,0 7,0 11,2l2,2l3,4l1,1" id="svg_1" stroke-width="5" stroke="#000000" fill="none"/>
  </defs>
  <text font-family="Palatino" font-size="25">
    <textPath xlink:href="#svg_1">
      contributors: Rene Just Nielsen, Matthis Thorade, ...............................................................................................................................................................................................................
    </textPath>
  </text>
  <text font-family="Palatino" font-size="80" x="300" y="300">Medical Physiology in Modelica</text>
  <text font-family="Palatino" font-size="40" x="300" y="500">
  editors: Tom치코 Kulh치nek, Marek Matej치k, et al.
  </text>
  <!-- Show outline of the viewport using 'rect' element -->
  <rect x="1" y="1" width="1798" height="2358"
        fill="none" stroke="black" stroke-width="2" />
</svg>